<?xml version="1.0" encoding="UTF-8"?>
<svg width="29px" height="29px" viewBox="0 0 29 29" version="1.1" xmlns="http://www.w3.org/2000/svg" xmlns:xlink="http://www.w3.org/1999/xlink">
    <!-- Generator: Sketch 48.2 (47327) - http://www.bohemiancoding.com/sketch -->
    <title>Facebook-color</title>
    <desc>Created with Sketch.</desc>
    <defs></defs>
    <g id="3" stroke="none" stroke-width="1" fill="none" fill-rule="evenodd" transform="translate(-680.000000, -5238.000000)">
        <g id="Group-29" transform="translate(274.000000, 5076.000000)" fill="#C53E27">
            <g id="Group-18" transform="translate(406.000000, 162.000000)">
                <path d="M15.4584201,29 L1.59733077,29 C0.714890866,29 0,28.2832116 0,27.3993225 L0,1.60056496 C0,0.716450863 0.715003165,0 1.59733077,0 L27.343958,0 C28.226061,0 28.9411765,0.716450863 28.9411765,1.60056496 L28.9411765,27.3993225 C28.9411765,28.2833241 28.2259487,29 27.343958,29 L19.9689929,29 L19.9689929,17.7696018 L23.7308731,17.7696018 L24.2941612,13.3929163 L19.9689929,13.3929163 L19.9689929,10.5986792 C19.9689929,9.33152775 20.3201496,8.46800585 22.1335423,8.46800585 L24.4464377,8.46699312 L24.4464377,4.55245054 C24.0464312,4.49911338 22.6734724,4.3799487 21.0761417,4.3799487 C17.7414442,4.3799487 15.4584201,6.41958878 15.4584201,10.1652303 L15.4584201,13.3929163 L11.6868823,13.3929163 L11.6868823,17.7696018 L15.4584201,17.7696018 L15.4584201,29 L15.4584201,29 Z" id="Facebook"></path>
            </g>
        </g>
    </g>
</svg>