<?xml version="1.0" encoding="UTF-8"?>
<svg width="29px" height="29px" viewBox="0 0 29 29" version="1.1" xmlns="http://www.w3.org/2000/svg" xmlns:xlink="http://www.w3.org/1999/xlink">
    <!-- Generator: Sketch 48.2 (47327) - http://www.bohemiancoding.com/sketch -->
    <title>Instagram-color</title>
    <desc>Created with Sketch.</desc>
    <defs></defs>
    <g id="3" stroke="none" stroke-width="1" fill="none" fill-rule="evenodd" transform="translate(-733.000000, -5238.000000)">
        <g id="Group-29" transform="translate(274.000000, 5076.000000)" fill="#C53E27">
            <g id="Group-18" transform="translate(406.000000, 162.000000)">
                <path d="M67.5294405,0 C71.4593876,0 71.9521747,0.0166917738 73.4956168,0.0872576865 C75.0358422,0.157650926 76.0877609,0.402789769 77.0081969,0.761260001 C77.959766,1.13175982 78.7667559,1.62756306 79.5712758,2.43366062 C80.3757383,3.23981574 80.8705358,4.04844584 81.2403416,5.00194903 C81.5980272,5.92425587 81.8426689,6.9783126 81.9129193,8.52166854 C81.9833421,10.0682477 82,10.5620364 82,14.5000288 C82,18.4379636 81.9833421,18.9317523 81.9129193,20.4783315 C81.8426689,22.0216874 81.5980272,23.0757441 81.2403416,23.998051 C80.8705358,24.9515542 80.3757383,25.7601843 79.5712758,26.5663394 C78.7667559,27.3724369 77.959766,27.8682402 77.0081969,28.2387976 C76.0877609,28.5972102 75.0358422,28.8423491 73.4956168,28.9127423 C71.9521747,28.9833082 71.4593876,29 67.5294405,29 C63.599436,29 63.1066488,28.9833082 61.5632067,28.9127423 C60.0229813,28.8423491 58.9710626,28.5972102 58.0506266,28.2387976 C57.0990575,27.8682402 56.2920676,27.3724369 55.4875477,26.5663394 C54.6830852,25.7601843 54.1882877,24.9515542 53.8185394,23.998051 C53.4607963,23.0757441 53.2161547,22.0216874 53.1459042,20.4783315 C53.0754814,18.9317523 53.0588235,18.4379636 53.0588235,14.5000288 C53.0588235,10.5620364 53.0754814,10.0682477 53.1459042,8.52166854 C53.2161547,6.9783126 53.4607963,5.92425587 53.8185394,5.00194903 C54.1882877,4.04844584 54.6830852,3.23981574 55.4875477,2.43366062 C56.2920676,1.62756306 57.0990575,1.13175982 58.0506266,0.761260001 C58.9710626,0.402789769 60.0229813,0.157650926 61.5632067,0.0872576865 C63.1066488,0.0166917738 63.599436,0 67.5294405,0 Z M67.5294405,2.61260795 C63.6656081,2.61260795 63.2079175,2.62740031 61.6820524,2.69716041 C60.2711843,2.7616252 59.5049776,2.99784257 58.995073,3.19641712 C58.3196232,3.45945646 57.8375776,3.77366471 57.3312344,4.28109463 C56.8248337,4.788467 56.5112628,5.2714924 56.248757,5.94831504 C56.0505853,6.459256 55.8148471,7.22702003 55.750513,8.64075571 C55.6808944,10.1697222 55.6661321,10.6283431 55.6661321,14.5000288 C55.6661321,18.3716569 55.6808944,18.8302778 55.750513,20.3592443 C55.8148471,21.77298 56.0505853,22.540744 56.248757,23.051685 C56.5112628,23.7285076 56.8248912,24.211533 57.3312344,24.7189054 C57.8375776,25.2263353 58.3196232,25.5405435 58.995073,25.8035829 C59.5049776,26.0021574 60.2711843,26.2383748 61.6820524,26.3028396 C63.2077452,26.3725997 63.6653209,26.3873921 67.5294405,26.3873921 C71.3935026,26.3873921 71.8511358,26.3725997 73.3767712,26.3028396 C74.7876392,26.2383748 75.5538459,26.0021574 76.0637505,25.8035829 C76.7392003,25.5405435 77.2212459,25.2263353 77.7275891,24.7189054 C78.2339898,24.211533 78.5475607,23.7285076 78.8100665,23.051685 C79.0082382,22.540744 79.2439765,21.77298 79.3083105,20.3592443 C79.3779291,18.8302778 79.3926915,18.3716569 79.3926915,14.5000288 C79.3926915,10.6283431 79.3779291,10.1697222 79.3083105,8.64075571 C79.2439765,7.22702003 79.0082382,6.459256 78.8100665,5.94831504 C78.5475607,5.2714924 78.2339898,4.788467 77.7275891,4.28109463 C77.2212459,3.77366471 76.7392003,3.45945646 76.0637505,3.19641712 C75.5538459,2.99784257 74.7876392,2.7616252 73.3767712,2.69716041 C71.850906,2.62740031 71.3932154,2.61260795 67.5294405,2.61260795 Z M67.5294405,7.05405872 C71.6333766,7.05405872 74.9602497,10.3876937 74.9602497,14.5000288 C74.9602497,18.6123063 71.6333766,21.9459413 67.5294405,21.9459413 C63.4254469,21.9459413 60.0985738,18.6123063 60.0985738,14.5000288 C60.0985738,10.3876937 63.4254469,7.05405872 67.5294405,7.05405872 Z M67.5294405,19.3333333 C70.1933859,19.3333333 72.3529412,17.1693888 72.3529412,14.5000288 C72.3529412,11.8306112 70.1933859,9.66666667 67.5294405,9.66666667 C64.8654376,9.66666667 62.7058824,11.8306112 62.7058824,14.5000288 C62.7058824,17.1693888 64.8654376,19.3333333 67.5294405,19.3333333 Z M76.9903327,6.7598806 C76.9903327,7.72086631 76.2128676,8.49985412 75.2538311,8.49985412 C74.2948521,8.49985412 73.517387,7.72086631 73.517387,6.7598806 C73.517387,5.79889489 74.2948521,5.01984952 75.2538311,5.01984952 C76.2128676,5.01984952 76.9903327,5.79889489 76.9903327,6.7598806 Z" id="Instagram"></path>
            </g>
        </g>
    </g>
</svg>